<svg id="Layer_1" xmlns="http://www.w3.org/2000/svg" viewBox="0 0 256 40"><style>.st0{fill:#ff0}.st1{fill:#fff}</style><path class="st0" d="M1 3.7h7.6V38H1V3.7zm28.9 27.5c3.8 0 6.8-1.5 9.2-4.5l4.9 5c-3.9 4.4-8.5 6.6-13.7 6.6-5.3 0-9.6-1.7-13-5-3.4-3.3-5.1-7.5-5.1-12.6s1.7-9.3 5.2-12.7c3.5-3.4 7.7-5.1 12.8-5.1 5.6 0 10.3 2.1 14.1 6.4l-4.8 5.4c-2.4-3-5.4-4.5-9-4.5-2.9 0-5.3.9-7.4 2.8-2 1.9-3.1 4.4-3.1 7.6s1 5.7 2.9 7.7 4.2 2.9 7 2.9zm45.2 2.1c-3.5 3.4-7.7 5.1-12.8 5.1-5.1 0-9.3-1.7-12.8-5.1-3.5-3.4-5.2-7.6-5.2-12.6s1.7-9.2 5.2-12.6C53 4.7 57.2 3 62.3 3c5.1 0 9.3 1.7 12.8 5.1 3.5 3.4 5.2 7.6 5.2 12.6s-1.7 9.2-5.2 12.6zm-2.6-12.6c0-3.1-1-5.7-2.9-7.8-2-2.2-4.4-3.2-7.2-3.2-2.9 0-5.3 1.1-7.2 3.2-2 2.2-2.9 4.8-2.9 7.8 0 3.1 1 5.7 2.9 7.8 2 2.1 4.4 3.2 7.2 3.2 2.9 0 5.3-1.1 7.2-3.2 2-2.2 2.9-4.8 2.9-7.8z"/><path class="st1" d="M107.8 9v29H102V9H91.7V3.7h26.6V9h-10.5zm26.6 8.1c-2.7 0-4.8.9-6.1 2.6-1.4 1.8-2.1 4.1-2.1 7.1V38h-5.5V11.9h5.5v5.2c.9-1.6 2.1-3 3.6-4s3.1-1.6 4.8-1.6V17c0 .1-.1.1-.2.1zM158.2 38h-5v-3.5c-2.2 2.6-5 3.9-8.7 3.9-2.7 0-5-.8-6.7-2.3-1.8-1.5-2.7-3.6-2.7-6.2s.9-4.5 2.8-5.8c1.9-1.3 4.5-1.9 7.7-1.9h7.1v-1c0-3.5-1.9-5.2-5.8-5.2-2.4 0-4.9.9-7.5 2.6l-2.5-3.4c3.2-2.5 6.8-3.8 10.8-3.8 3.1 0 5.6.8 7.5 2.3 1.9 1.6 2.9 4 2.9 7.3v17zm-5.5-9.7v-2.2h-6.2c-4 0-5.9 1.2-5.9 3.7 0 1.3.5 2.2 1.5 2.9 1 .7 2.3 1 4.1 1 1.7 0 3.3-.5 4.6-1.5 1.2-.9 1.9-2.3 1.9-3.9zm21.7 10.1c-3.6 0-6.7-1.2-9.4-3.7-2.6-2.5-3.9-5.7-3.9-9.7 0-4 1.4-7.2 4.1-9.7 2.7-2.5 6.1-3.7 10-3.7 3.9 0 7.2 1.4 9.9 4.1l-3.2 4c-2.3-2-4.5-2.9-6.8-2.9s-4.3.8-6 2.3c-1.7 1.5-2.5 3.5-2.5 5.9 0 2.4.8 4.4 2.5 6.1 1.7 1.7 3.7 2.5 6.2 2.5 2.4 0 4.7-1.1 6.9-3.3l3.2 3.5c-3.2 3-6.8 4.6-11 4.6zm19.2-.4h-5.5V1.6h5.5V23l10.6-11.1h7.1l-9.9 10.3L212 38h-6.7l-7.7-11.4-4 4V38zm44.3-10.6h-20.4c.1 1.9 1 3.4 2.6 4.6 1.6 1.2 3.4 1.7 5.5 1.7 3.3 0 5.7-1 7.4-3.1l3.1 3.4c-2.8 2.9-6.5 4.4-11 4.4-3.7 0-6.8-1.2-9.3-3.7-2.6-2.4-3.8-5.7-3.8-9.8 0-4.1 1.3-7.4 3.9-9.8 2.6-2.4 5.7-3.6 9.2-3.6 3.5 0 6.6 1.1 9 3.2s3.7 5.1 3.7 8.8v3.9zM217.5 23h14.9c0-2.2-.7-3.9-2.1-5-1.4-1.2-3.1-1.8-5.1-1.8s-3.8.6-5.4 1.8c-1.5 1.3-2.3 2.9-2.3 5zm37.2-5.9c-2.7 0-4.8.9-6.1 2.6-1.4 1.8-2.1 4.1-2.1 7.1V38H241V11.9h5.5v5.2c.9-1.6 2.1-3 3.6-4s3.1-1.6 4.8-1.6V17c0 .1-.1.1-.2.1z"/></svg>