<?xml version="1.0" encoding="utf-8"?>
<!-- Generator: Adobe Illustrator 21.0.0, SVG Export Plug-In . SVG Version: 6.00 Build 0)  -->
<svg version="1.1" id="Layer_1" xmlns="http://www.w3.org/2000/svg" xmlns:xlink="http://www.w3.org/1999/xlink" x="0px" y="0px"
	 viewBox="0 0 256 40" style="enable-background:new 0 0 256 40;" xml:space="preserve">
<style type="text/css">
	.st0{fill:#FFFF00;}
	.st1{fill:#FFFFFF;}
</style>
<path class="st0" d="M1,3.7h7.6V38H1V3.7z"/>
<path class="st0" d="M29.9,31.2c3.8,0,6.8-1.5,9.2-4.5l4.9,5c-3.9,4.4-8.5,6.6-13.7,6.6c-5.3,0-9.6-1.7-13-5
	c-3.4-3.3-5.1-7.5-5.1-12.6s1.7-9.3,5.2-12.7c3.5-3.4,7.7-5.1,12.8-5.1c5.6,0,10.3,2.1,14.1,6.4l-4.8,5.4c-2.4-3-5.4-4.5-9-4.5
	c-2.9,0-5.3,0.9-7.4,2.8c-2,1.9-3.1,4.4-3.1,7.6s1,5.7,2.9,7.7C24.8,30.3,27.1,31.2,29.9,31.2z"/>
<path class="st0" d="M75.1,33.3c-3.5,3.4-7.7,5.1-12.8,5.1c-5.1,0-9.3-1.7-12.8-5.1c-3.5-3.4-5.2-7.6-5.2-12.6c0-5,1.7-9.2,5.2-12.6
	c3.5-3.4,7.7-5.1,12.8-5.1c5.1,0,9.3,1.7,12.8,5.1c3.5,3.4,5.2,7.6,5.2,12.6C80.3,25.7,78.6,29.9,75.1,33.3z M72.5,20.7
	c0-3.1-1-5.7-2.9-7.8c-2-2.2-4.4-3.2-7.2-3.2c-2.9,0-5.3,1.1-7.2,3.2c-2,2.2-2.9,4.8-2.9,7.8c0,3.1,1,5.7,2.9,7.8
	c2,2.1,4.4,3.2,7.2,3.2c2.9,0,5.3-1.1,7.2-3.2C71.6,26.3,72.5,23.7,72.5,20.7z"/>
<path class="st1" d="M107.8,9v29h-5.8V9H91.7V3.7h26.6V9H107.8z"/>
<path class="st1" d="M134.4,17.1c-2.7,0-4.8,0.9-6.1,2.6c-1.4,1.8-2.1,4.1-2.1,7.1V38h-5.5V11.9h5.5v5.2c0.9-1.6,2.1-3,3.6-4
	c1.5-1,3.1-1.6,4.8-1.6l0,5.5C134.6,17.1,134.5,17.1,134.4,17.1z"/>
<path class="st1" d="M158.2,38h-5v-3.5c-2.2,2.6-5,3.9-8.7,3.9c-2.7,0-5-0.8-6.7-2.3c-1.8-1.5-2.7-3.6-2.7-6.2
	c0-2.6,0.9-4.5,2.8-5.8c1.9-1.3,4.5-1.9,7.7-1.9h7.1v-1c0-3.5-1.9-5.2-5.8-5.2c-2.4,0-4.9,0.9-7.5,2.6l-2.5-3.4
	c3.2-2.5,6.8-3.8,10.8-3.8c3.1,0,5.6,0.8,7.5,2.3c1.9,1.6,2.9,4,2.9,7.3V38z M152.7,28.3v-2.2h-6.2c-4,0-5.9,1.2-5.9,3.7
	c0,1.3,0.5,2.2,1.5,2.9c1,0.7,2.3,1,4.1,1c1.7,0,3.3-0.5,4.6-1.5C152,31.3,152.7,29.9,152.7,28.3z"/>
<path class="st1" d="M174.4,38.4c-3.6,0-6.7-1.2-9.4-3.7c-2.6-2.5-3.9-5.7-3.9-9.7c0-4,1.4-7.2,4.1-9.7c2.7-2.5,6.1-3.7,10-3.7
	c3.9,0,7.2,1.4,9.9,4.1l-3.2,4c-2.3-2-4.5-2.9-6.8-2.9c-2.3,0-4.3,0.8-6,2.3c-1.7,1.5-2.5,3.5-2.5,5.9c0,2.4,0.8,4.4,2.5,6.1
	c1.7,1.7,3.7,2.5,6.2,2.5c2.4,0,4.7-1.1,6.9-3.3l3.2,3.5C182.2,36.8,178.6,38.4,174.4,38.4z"/>
<path class="st1" d="M193.6,38h-5.5V1.6h5.5V23l10.6-11.1h7.1l-9.9,10.3L212,38h-6.7l-7.7-11.4l-4,4V38z"/>
<path class="st1" d="M237.9,27.4h-20.4c0.1,1.9,1,3.4,2.6,4.6c1.6,1.2,3.4,1.7,5.5,1.7c3.3,0,5.7-1,7.4-3.1l3.1,3.4
	c-2.8,2.9-6.5,4.4-11,4.4c-3.7,0-6.8-1.2-9.3-3.7c-2.6-2.4-3.8-5.7-3.8-9.8c0-4.1,1.3-7.4,3.9-9.8c2.6-2.4,5.7-3.6,9.2-3.6
	c3.5,0,6.6,1.1,9,3.2s3.7,5.1,3.7,8.8V27.4z M217.5,23h14.9c0-2.2-0.7-3.9-2.1-5c-1.4-1.2-3.1-1.8-5.1-1.8s-3.8,0.6-5.4,1.8
	C218.3,19.3,217.5,20.9,217.5,23z"/>
<path class="st1" d="M254.7,17.1c-2.7,0-4.8,0.9-6.1,2.6c-1.4,1.8-2.1,4.1-2.1,7.1V38H241V11.9h5.5v5.2c0.9-1.6,2.1-3,3.6-4
	c1.5-1,3.1-1.6,4.8-1.6l0,5.5C254.9,17.1,254.8,17.1,254.7,17.1z"/>
</svg>
